<svg width="400" height="53" viewBox="0 0 400 53" fill="none" xmlns="http://www.w3.org/2000/svg">
<path d="M0 16.9982L4.8 16.7982C9.7 16.6982 19.3 16.2982 28.8 13.4982C38.3 10.6982 47.7 5.2982 57.2 3.4982C66.7 1.6982 76.3 3.2982 85.8 5.4982C95.3 7.6982 104.7 10.2982 114.2 10.1982C123.7 9.99821 133.3 6.9982 142.8 4.4982C152.3 1.9982 161.7 -0.00178993 171.2 2.19821C180.7 4.29821 190.3 10.6982 200 10.2982C209.7 9.99819 219.3 2.99821 228.8 1.19821C238.3 -0.70179 247.7 2.69821 257.2 7.19821C266.7 11.6982 276.3 17.2982 285.8 19.6982C295.3 21.9982 304.7 20.9982 314.2 18.7982C323.7 16.6982 333.3 13.2982 342.8 14.6982C352.3 15.9982 361.7 21.9982 371.2 20.9982C380.7 19.9982 390.3 11.9982 395.2 7.9982L400 3.9982V53.9982H395.2C390.3 53.9982 380.7 53.9982 371.2 53.9982C361.7 53.9982 352.3 53.9982 342.8 53.9982C333.3 53.9982 323.7 53.9982 314.2 53.9982C304.7 53.9982 295.3 53.9982 285.8 53.9982C276.3 53.9982 266.7 53.9982 257.2 53.9982C247.7 53.9982 238.3 53.9982 228.8 53.9982C219.3 53.9982 209.7 53.9982 200 53.9982C190.3 53.9982 180.7 53.9982 171.2 53.9982C161.7 53.9982 152.3 53.9982 142.8 53.9982C133.3 53.9982 123.7 53.9982 114.2 53.9982C104.7 53.9982 95.3 53.9982 85.8 53.9982C76.3 53.9982 66.7 53.9982 57.2 53.9982C47.7 53.9982 38.3 53.9982 28.8 53.9982C19.3 53.9982 9.7 53.9982 4.8 53.9982H0V16.9982Z" fill="white"/>
</svg>
