<svg id="visual" viewBox="0 0 400 400" width="400" height="400" xmlns="http://www.w3.org/2000/svg" xmlns:xlink="http://www.w3.org/1999/xlink" version="1.1"><path d="M0 364L4.8 363.8C9.7 363.7 19.3 363.3 28.8 360.5C38.3 357.7 47.7 352.3 57.2 350.5C66.7 348.7 76.3 350.3 85.8 352.5C95.3 354.7 104.7 357.3 114.2 357.2C123.7 357 133.3 354 142.8 351.5C152.3 349 161.7 347 171.2 349.2C180.7 351.3 190.3 357.7 200 357.3C209.7 357 219.3 350 228.8 348.2C238.3 346.3 247.7 349.7 257.2 354.2C266.7 358.7 276.3 364.3 285.8 366.7C295.3 369 304.7 368 314.2 365.8C323.7 363.7 333.3 360.3 342.8 361.7C352.3 363 361.7 369 371.2 368C380.7 367 390.3 359 395.2 355L400 351L400 401L395.2 401C390.3 401 380.7 401 371.2 401C361.7 401 352.3 401 342.8 401C333.3 401 323.7 401 314.2 401C304.7 401 295.3 401 285.8 401C276.3 401 266.7 401 257.2 401C247.7 401 238.3 401 228.8 401C219.3 401 209.7 401 200 401C190.3 401 180.7 401 171.2 401C161.7 401 152.3 401 142.8 401C133.3 401 123.7 401 114.2 401C104.7 401 95.3 401 85.8 401C76.3 401 66.7 401 57.2 401C47.7 401 38.3 401 28.8 401C19.3 401 9.7 401 4.8 401L0 401Z" fill="#FFFFFF" stroke-linecap="round" stroke-linejoin="miter"></path></svg>