<svg id="visual" viewBox="0 0 900 600" width="900" height="600" xmlns="http://www.w3.org/2000/svg" xmlns:xlink="http://www.w3.org/1999/xlink" version="1.1"><g transform="translate(473.8852545814736 273.4589861804795)"><path class="path" d="M109.6 -188.1C143.5 -170.2 173.5 -143.9 195.8 -111.1C218 -78.3 232.5 -39.2 234.7 1.2C236.8 41.7 226.7 83.3 207.2 120.9C187.7 158.4 158.8 191.8 122.8 218.4C86.7 245.1 43.3 265.1 -2.2 269C-47.8 272.8 -95.7 260.7 -136.5 236.8C-177.4 212.9 -211.2 177.2 -237.3 135.8C-263.4 94.3 -281.7 47.2 -282.7 -0.6C-283.7 -48.3 -267.4 -96.7 -236.9 -130.4C-206.4 -164.2 -161.7 -183.4 -119.9 -196.8C-78 -210.1 -39 -217.6 -0.6 -216.5C37.8 -215.5 75.7 -206.1 109.6 -188.1" fill="none" stroke="#FFFFFF" stroke-width="6"></path></g></svg>
