<svg id="visual" viewBox="0 0 900 600" width="900" height="600" xmlns="http://www.w3.org/2000/svg" xmlns:xlink="http://www.w3.org/1999/xlink" version="1.1"><g transform="translate(454.66867168096746 288.8860995726488)"><path d="M129.4 -223.4C169.1 -201.1 203.6 -169.3 228.5 -130.5C253.4 -91.7 268.7 -45.8 269.4 0.4C270.2 46.7 256.3 93.3 232.5 134C208.7 174.7 174.8 209.5 134.4 235C94 260.5 47 276.7 -1.5 279.3C-50 281.9 -100 270.9 -141.7 246.1C-183.4 221.4 -216.9 182.9 -241.4 139.6C-265.9 96.3 -281.4 48.2 -278.4 1.8C-275.4 -44.7 -253.7 -89.3 -226.1 -127.2C-198.5 -165.1 -164.9 -196.2 -126.2 -219.1C-87.5 -241.9 -43.8 -256.4 0.5 -257.4C44.8 -258.3 89.7 -245.6 129.4 -223.4" fill="none" stroke="#FFFFFF" stroke-width="6"></path></g></svg>